<svg xmlns="http://www.w3.org/2000/svg" xmlns:xlink="http://www.w3.org/1999/xlink" width="600" height="600" viewBox="0 0 600 600"><defs><clipPath id="clip-Full_Stack"><rect width="600" height="600"></rect></clipPath></defs><g id="Full_Stack" data-name="Full Stack" clip-path="url(#clip-Full_Stack)"><g id="OBJECTS" transform="translate(-99 -1.43)"><text id="_" data-name="&lt;/&gt;" transform="translate(363.515 361.118)" fill="#323247" font-size="28" font-family="SegoeUI, Segoe UI"><tspan x="0" y="0">&lt;/&gt;</tspan></text><g id="Group_27957" data-name="Group 27957" transform="translate(273.786 166.864)"><path id="Path_37984" data-name="Path 37984" d="M487.417,233.161c-1.766,38.692-39.8,68.34-68.289,70.129-37.642,2.367-64.542-31.58-68.29-70.129-3.247-33.4,8.612-32.9,17.446-46.82,10.7-16.866,30.649-26.187,50.843-26.187C456.843,160.154,489.794,181.1,487.417,233.161Z" transform="translate(-215.472 -148.361)" fill="#b83d5d"></path><rect id="Rectangle_3716" data-name="Rectangle 3716" width="52.931" height="66.264" transform="translate(177.191 151.317)" fill="#e3b5aa"></rect><g id="Group_27950" data-name="Group 27950" transform="translate(258.171 101.928)"><g id="Group_27949" data-name="Group 27949"><path id="Path_37985" data-name="Path 37985" d="M459.37,246.988c9.443-14.328,21.455-14.956,26.471,1.989s-11.541,30.889-25.02,25.744S459.37,246.988,459.37,246.988Z" transform="translate(-454.429 -236.249)" fill="#e3b5aa"></path><path id="Path_37986" data-name="Path 37986" d="M468.68,245.639c6.324-1.157,9.565,17.686-4.3,18.308l2.852-6.575-2.677-5.469Z" transform="translate(-452.594 -234.526)" fill="#d78f97"></path><path id="Path_37987" data-name="Path 37987" d="M462.625,266.831c8.084-8.616,2.249-14.627,2.249-14.627s7.694-15.782,10.779-3.686" transform="translate(-452.917 -234.828)" fill="none" stroke="#c87e84" stroke-miterlimit="10" stroke-width="0.5"></path></g></g><g id="Group_27952" data-name="Group 27952" transform="translate(116.37 101.928)"><g id="Group_27951" data-name="Group 27951"><path id="Path_37988" data-name="Path 37988" d="M362.1,246.988c-9.443-14.328-21.455-14.956-26.471,1.989s11.539,30.889,25.02,25.744S362.1,246.988,362.1,246.988Z" transform="translate(-334.715 -236.249)" fill="#e3b5aa"></path><path id="Path_37989" data-name="Path 37989" d="M349.273,245.639c-6.324-1.157-9.565,17.686,4.3,18.308l-2.852-6.575L353.4,251.9Z" transform="translate(-333.03 -234.526)" fill="#d78f97"></path><path id="Path_37990" data-name="Path 37990" d="M355.842,266.831c-8.084-8.616-2.249-14.627-2.249-14.627s-7.7-15.782-10.779-3.686" transform="translate(-333.221 -234.828)" fill="none" stroke="#c87e84" stroke-miterlimit="10" stroke-width="0.5"></path></g></g><path id="Path_37991" data-name="Path 37991" d="M438.994,279.182v24.652c-19.021,25.775-52.932,17.394-52.932,17.394l.593-42.046Z" transform="translate(-208.872 -126.4)" fill="#c87e84"></path><path id="Rectangle_3717" data-name="Rectangle 3717" d="M32.623,0H81.8a32.623,32.623,0,0,1,32.623,32.623V89.361a48.3,48.3,0,0,1-48.3,48.3H48.3A48.3,48.3,0,0,1,0,89.361V32.623A32.623,32.623,0,0,1,32.623,0Z" transform="translate(146.444 43.367)" fill="#e3b5aa"></path><path id="Path_37992" data-name="Path 37992" d="M418.579,261.043a8.8,8.8,0,0,1-17.605,0" transform="translate(-206.12 -129.747)" fill="none" stroke="#b83d5d" stroke-miterlimit="10" stroke-width="1"></path><path id="Path_37993" data-name="Path 37993" d="M365.8,193.838s-10.021-16.61,2.53-31.255C368.328,162.583,377.346,179.28,365.8,193.838Z" transform="translate(-213.309 -147.912)" fill="#b83d5d"></path><path id="Path_37994" data-name="Path 37994" d="M374.338,186.057s-13.953,13.475-31.031,4.511C343.307,190.567,357.57,178.051,374.338,186.057Z" transform="translate(-216.76 -144.075)" fill="#b83d5d"></path><path id="Path_37995" data-name="Path 37995" d="M390.627,245.04c0,4.731-2.015,8.565-4.5,8.565s-4.5-3.834-4.5-8.565,2.015-8.565,4.5-8.565S390.627,240.31,390.627,245.04Z" transform="translate(-209.69 -134.28)" fill="#36364f"></path><circle id="Ellipse_609" data-name="Ellipse 609" cx="23.007" cy="23.007" r="23.007" transform="translate(145.876 126.293) rotate(-74.8)" fill="none" stroke="#fff" stroke-miterlimit="10" stroke-width="4"></circle><path id="Path_37996" data-name="Path 37996" d="M436.586,245.04c0,4.731-2.015,8.565-4.5,8.565s-4.5-3.834-4.5-8.565,2.015-8.565,4.5-8.565S436.586,240.31,436.586,245.04Z" transform="translate(-201.211 -134.28)" fill="#36364f"></path><circle id="Ellipse_610" data-name="Ellipse 610" cx="23.007" cy="23.007" r="23.007" transform="translate(204.889 126.154) rotate(-74.518)" fill="none" stroke="#fff" stroke-miterlimit="10" stroke-width="4"></circle><path id="Path_37997" data-name="Path 37997" d="M366.091,206.088s36.346-19.16,60.5-5.273,26.868,42.566,50.718,35.144c0,0,18.113-7.974-1.812-35.748S441.938,167,416,173.04,373.181,183.773,366.091,206.088Z" transform="translate(-212.556 -146.392)" fill="#b83d5d"></path><path id="Path_37998" data-name="Path 37998" d="M364.918,203.583s12-15.908,28.792-20.113,35.369,16.452,35.369,16.452S386.049,193.787,364.918,203.583Z" transform="translate(-212.773 -144.163)" fill="#9a304f"></path><path id="Path_37999" data-name="Path 37999" d="M360.588,217.255s4.047,29.524,0,47.541C360.588,264.8,354.673,219.016,360.588,217.255Z" transform="translate(-214.057 -137.826)" fill="#b83d5d"></path><path id="Path_38000" data-name="Path 38000" d="M456.635,217.255s-4.047,29.524,0,47.541C456.635,264.8,462.551,219.016,456.635,217.255Z" transform="translate(-196.183 -137.826)" fill="#b83d5d"></path><path id="Path_38001" data-name="Path 38001" d="M398.542,215.837c-6.242-2.988-17.346-6.27-27.633,1.059a2.4,2.4,0,0,0,1.017,4.3,77.09,77.09,0,0,0,13.394,1.124,56.822,56.822,0,0,0,12.778-2A2.4,2.4,0,0,0,398.542,215.837Z" transform="translate(-211.85 -138.711)" fill="#b83d5d"></path><path id="Path_38002" data-name="Path 38002" d="M449.438,215.837c-6.243-2.988-17.347-6.27-27.633,1.059a2.4,2.4,0,0,0,1.018,4.3,77.089,77.089,0,0,0,13.394,1.124,56.832,56.832,0,0,0,12.778-2A2.4,2.4,0,0,0,449.438,215.837Z" transform="translate(-202.46 -138.711)" fill="#b83d5d"></path><g id="Group_27954" data-name="Group 27954" transform="translate(181.695 146.818)"><g id="Group_27953" data-name="Group 27953"><path id="Path_38003" data-name="Path 38003" d="M431.178,279.29a18.943,18.943,0,0,1-2.255,3.268c-3.058,3.681-8.251,7.217-17.148,7.382l-.014.038-.653-.012-.025-.053c-8.341-.163-13.482-3.3-16.583-6.768a18.634,18.634,0,0,1-2.766-3.915,19.333,19.333,0,0,1-1.869-5.083l43.2.082A17.646,17.646,0,0,1,431.178,279.29Z" transform="translate(-389.865 -274.147)" fill="#c33e5d"></path></g><path id="Path_38004" data-name="Path 38004" d="M431.178,279.29a18.943,18.943,0,0,1-2.255,3.268,40.644,40.644,0,0,0-34.423.586,18.634,18.634,0,0,1-2.766-3.915,19.333,19.333,0,0,1-1.869-5.083l43.2.082A17.646,17.646,0,0,1,431.178,279.29Z" transform="translate(-389.865 -274.147)" fill="#36364f"></path></g><path id="Path_38005" data-name="Path 38005" d="M623.755,499.546l-387.284.4s7.225-15.114,17.625-35.144c.77-1.481,1.564-3,2.369-4.537,14.2-27.088,33.308-61.31,48.221-79.871,17.175-21.367,57.756-36.6,85.319-44.928,16.062-4.843,27.694-7.343,27.694-7.343h44.49s10.447,2.237,25.206,6.609c27.54,8.136,68.713,24.838,87.807,45.661a101.914,101.914,0,0,1,11.833,16.241C610.536,435.69,623.755,499.546,623.755,499.546Z" transform="translate(-236.471 -117.37)" fill="#eba154"></path><path id="Path_38006" data-name="Path 38006" d="M623.755,488.875l-387.284.4s7.225-15.114,17.625-35.144C447.36,510.945,549.2,417.843,572.446,392.64a20.533,20.533,0,0,1,14.5-6.671l.094,0C610.536,425.019,623.755,488.875,623.755,488.875Z" transform="translate(-236.471 -106.698)" fill="#d9751f" opacity="0.5"></path><line id="Line_386" data-name="Line 386" x2="12.152" transform="translate(197.579 114.036)" fill="none" stroke="#fff" stroke-miterlimit="10" stroke-width="4"></line><path id="Path_38007" data-name="Path 38007" d="M463.479,334.731c-47.94,52.747-97.388.745-97.388.745,16.063-4.854,27.7-7.355,27.7-7.355h44.487S448.723,330.368,463.479,334.731Z" transform="translate(-212.556 -117.371)" fill="#e3b5aa"></path><g id="Group_27955" data-name="Group 27955" transform="translate(81.654 322.498)"><line id="Line_387" data-name="Line 387" y2="60.153" transform="translate(16.151)" fill="none" stroke="#dc831e" stroke-miterlimit="10" stroke-width="3"></line><line id="Line_388" data-name="Line 388" x1="16.151" y1="20.593" transform="translate(0 17.747)" fill="none" stroke="#dc831e" stroke-miterlimit="10" stroke-width="3"></line></g><g id="Group_27956" data-name="Group 27956" transform="translate(308.411 322.498)"><line id="Line_389" data-name="Line 389" y2="60.153" fill="none" stroke="#dc831e" stroke-miterlimit="10" stroke-width="3"></line><line id="Line_390" data-name="Line 390" y1="18.285" x2="14.341" transform="translate(0 20.054)" fill="none" stroke="#dc831e" stroke-miterlimit="10" stroke-width="3"></line></g><path id="Path_38008" data-name="Path 38008" d="M364.153,353.964s59.443,40.6,99.684-1.971" transform="translate(-212.914 -112.967)" fill="none" stroke="#dc831e" stroke-miterlimit="10" stroke-width="3"></path><text id="x" transform="translate(254.958 320.618)" fill="#fff" font-size="49" font-family="Montserrat-Bold, Montserrat" font-weight="700"><tspan x="0" y="0">x</tspan></text><path id="Path_38009" data-name="Path 38009" d="M364.986,185.015c13.347-56.1,147.061-49.924,122.18,59.295-7.453,32.717-61.949-74.37-108.983-48.1a9.245,9.245,0,0,1-10.836-1.3h0C364.646,192.386,364.13,188.615,364.986,185.015Z" transform="translate(-212.83 -150.198)" fill="#b83d5d"></path></g><g id="Group_27959" data-name="Group 27959" transform="translate(186.773 406.118)"><g id="Group_27958" data-name="Group 27958" transform="translate(0)"><path id="Path_38010" data-name="Path 38010" d="M475.624,495.144a.425.425,0,0,1-.13.024,9.263,9.263,0,0,1-.983.046H215.117a10.913,10.913,0,0,1-10.9-10.908l-.036-.118L163.793,370.06a13.4,13.4,0,0,1,12.627-17.874H344.831a13.4,13.4,0,0,1,12.639,8.932L401,484.093l.071.213h73.688C481.523,484.306,482.269,494.421,475.624,495.144Z" transform="translate(-163.011 -352.186)" fill="#80abbd"></path><ellipse id="Ellipse_611" data-name="Ellipse 611" cx="19.529" cy="23.711" rx="19.529" ry="23.711" transform="translate(74.521 59.177) rotate(-18.978)" fill="#fff"></ellipse><path id="Path_38011" data-name="Path 38011" d="M447.318,484.3H373.625s-.02-.075-.064-.213L330.025,361.114a13.4,13.4,0,0,0-12.635-8.925h-5.631s12.583.821,15.729,12.082,46.137,130.706,46.137,130.706l3.178.235h70.259c.341,0,.672-.011.991-.043C454.835,494.55,454.12,484.3,447.318,484.3Z" transform="translate(-135.568 -352.185)" fill="#4b7195"></path></g><path id="Path_38012" data-name="Path 38012" d="M468.834,495.144a.426.426,0,0,1-.13.024,9.263,9.263,0,0,1-.983.046H208.328a10.858,10.858,0,0,1-8.517-4.109c153.321,13.17,138.231-138.919,138.231-138.919a13.4,13.4,0,0,1,12.639,8.932l43.53,122.975.071.213h72.527C467.591,487.894,468.278,491.508,468.834,495.144Z" transform="translate(-156.222 -352.186)" fill="#5a93a0" opacity="0.4"></path></g><g id="Group_27968" data-name="Group 27968" transform="translate(49.202 473.807)"><g id="Group_27963" data-name="Group 27963"><g id="Group_27961" data-name="Group 27961"><g id="Group_27960" data-name="Group 27960"><path id="Path_38013" data-name="Path 38013" d="M188.611,409.331v3.818c-6.9.789-8.59,6.626-8.59,13.728v2.349c0,7.1,1.689,12.939,8.59,13.728v3.8H56.67a9.8,9.8,0,0,1-9.8-9.8v-17.8a9.815,9.815,0,0,1,9.8-9.82Z" transform="translate(-46.869 -409.331)" fill="#4b7195"></path><path id="Path_38014" data-name="Path 38014" d="M184.854,438.465a2.851,2.851,0,0,1-2.679,3.909l-126.086.092V412.477l126.086.091a2.839,2.839,0,0,1,1.89.715,2.763,2.763,0,0,1,.789,3.195c-1.046,2.5-1.009,5.964-1.009,9.818v2.349C183.844,432.5,183.808,435.969,184.854,438.465Z" transform="translate(-45.168 -408.751)" fill="#fff"></path><path id="Path_38015" data-name="Path 38015" d="M184.065,413.284c-2.422.129-113.845,5.892-121.48,16.72-2.073,2.936-4.423,4.57-6.5,4.9V412.477l126.086.091A2.839,2.839,0,0,1,184.065,413.284Z" transform="translate(-45.168 -408.751)" fill="#a3d5e6" opacity="0.4"></path></g><path id="Rectangle_3718" data-name="Rectangle 3718" d="M5.344,0H17.416a0,0,0,0,1,0,0V37.421a0,0,0,0,1,0,0H5.344A5.344,5.344,0,0,1,0,32.077V5.344A5.344,5.344,0,0,1,5.344,0Z" transform="translate(0.001 0.009)" fill="#4b7195"></path><path id="Path_38016" data-name="Path 38016" d="M169.135,438.453a2.851,2.851,0,0,1-2.679,3.909l-25.171.019c20-2.275,18.746-18.7,18.746-18.7.22-.789-15.8-10.425-15.525-11.14l21.95.018a2.839,2.839,0,0,1,1.89.715,2.762,2.762,0,0,1,.789,3.193c-1.046,2.5-1.009,5.965-1.009,9.819v2.349C168.126,432.488,168.089,435.958,169.135,438.453Z" transform="translate(-29.449 -408.739)" fill="#a3d5e6" opacity="0.4"></path></g><g id="Group_27962" data-name="Group 27962" transform="translate(17.632 10.445)"><rect id="Rectangle_3719" data-name="Rectangle 3719" width="121.045" height="2.703" transform="translate(0 6.087)" fill="#a3d5e6" opacity="0.4"></rect><rect id="Rectangle_3720" data-name="Rectangle 3720" width="121.045" height="2.703" fill="#a3d5e6" opacity="0.4"></rect><rect id="Rectangle_3721" data-name="Rectangle 3721" width="121.045" height="2.703" transform="translate(0 13.831)" fill="#a3d5e6" opacity="0.4"></rect></g><path id="Path_38017" data-name="Path 38017" d="M133.034,435.82,126.6,429.4l-6.436,6.419V418.149h12.872Z" transform="translate(-33.346 -407.704)" fill="#c33e5d"></path></g><g id="Group_27967" data-name="Group 27967" transform="translate(14.113 37.295)"><g id="Group_27965" data-name="Group 27965"><g id="Group_27964" data-name="Group 27964"><path id="Path_38018" data-name="Path 38018" d="M200.526,440.817v3.818c-6.9.79-8.59,6.626-8.59,13.728v2.349c0,7.1,1.689,12.939,8.59,13.728v3.8H68.585a9.8,9.8,0,0,1-9.8-9.8v-17.8a9.815,9.815,0,0,1,9.8-9.82Z" transform="translate(-58.784 -440.817)" fill="#c33e5d"></path><path id="Path_38019" data-name="Path 38019" d="M196.769,469.951a2.851,2.851,0,0,1-2.679,3.909L68,473.952V443.963l126.086.091a2.834,2.834,0,0,1,1.89.717,2.761,2.761,0,0,1,.789,3.193c-1.046,2.5-1.009,5.964-1.009,9.818v2.349C195.759,463.986,195.723,467.455,196.769,469.951Z" transform="translate(-57.083 -440.236)" fill="#fff"></path><path id="Path_38020" data-name="Path 38020" d="M195.98,444.771c-2.422.128-113.845,5.891-121.48,16.719-2.074,2.936-4.423,4.57-6.5,4.9V443.963l126.086.091A2.834,2.834,0,0,1,195.98,444.771Z" transform="translate(-57.083 -440.236)" fill="#a3d5e6" opacity="0.4"></path></g><path id="Rectangle_3722" data-name="Rectangle 3722" d="M5.344,0H17.416a0,0,0,0,1,0,0V37.421a0,0,0,0,1,0,0H5.344A5.344,5.344,0,0,1,0,32.077V5.344A5.344,5.344,0,0,1,5.344,0Z" transform="translate(0.001 0.009)" fill="#c33e5d"></path><path id="Path_38021" data-name="Path 38021" d="M181.05,469.939a2.851,2.851,0,0,1-2.679,3.909l-25.171.019c20-2.275,18.746-18.7,18.746-18.7.22-.789-15.8-10.425-15.525-11.14l21.95.018a2.834,2.834,0,0,1,1.89.717,2.761,2.761,0,0,1,.789,3.193c-1.046,2.5-1.009,5.964-1.009,9.818v2.349C180.041,463.974,180,467.444,181.05,469.939Z" transform="translate(-41.364 -440.225)" fill="#a3d5e6" opacity="0.4"></path></g><g id="Group_27966" data-name="Group 27966" transform="translate(17.631 10.445)"><rect id="Rectangle_3723" data-name="Rectangle 3723" width="121.045" height="2.703" transform="translate(0 6.087)" fill="#a3d5e6" opacity="0.4"></rect><rect id="Rectangle_3724" data-name="Rectangle 3724" width="121.045" height="2.703" fill="#a3d5e6" opacity="0.4"></rect><rect id="Rectangle_3725" data-name="Rectangle 3725" width="121.045" height="2.703" transform="translate(0 13.831)" fill="#a3d5e6" opacity="0.4"></rect></g><path id="Path_38022" data-name="Path 38022" d="M166.8,469.447l-6.8-6.782-6.8,6.782V450.776h13.6Z" transform="translate(-41.364 -438.98)" fill="#c33e5d"></path></g></g><g id="Group_27969" data-name="Group 27969" transform="translate(38.971 549.644)"><path id="Path_38023" data-name="Path 38023" d="M843.24,488.5v2.736a15.146,15.146,0,0,1-15.15,15.138H53.381a15.159,15.159,0,0,1-14.664-11.313.041.041,0,0,0-.012-.034,15.456,15.456,0,0,1-.474-3.79V488.5a15.138,15.138,0,0,1,15.15-15.139H828.09A15.146,15.146,0,0,1,843.24,488.5Z" transform="translate(-38.231 -473.356)" fill="#47547c"></path><path id="Path_38024" data-name="Path 38024" d="M843.24,488.5v2.736a15.146,15.146,0,0,1-15.15,15.138H53.381a15.158,15.158,0,0,1-14.664-11.313.041.041,0,0,0-.012-.034c-.32-2.429-.474-3.79-.474-3.79C472.65,506.369,828.09,473.356,828.09,473.356A15.146,15.146,0,0,1,843.24,488.5Z" transform="translate(-38.231 -473.356)" fill="#2b2b3f" opacity="0.5"></path></g><g id="Group_27971" data-name="Group 27971" transform="translate(710.249 120.314)"><path id="Path_38025" data-name="Path 38025" d="M709.259,140.312c0-.1.012-.185.012-.284s-.012-.185-.012-.271a33.509,33.509,0,0,0,4.252-2.317,34.913,34.913,0,0,0,4.45-3.6l-.308-1.208a30.993,30.993,0,0,0-1.307-4.006c-.271-.641-.592-1.27-.9-1.9a12.861,12.861,0,0,0-1.01-1.849l-.641-1.06a32.568,32.568,0,0,0-5.683.592,30.119,30.119,0,0,0-4.635,1.368l-.394-.394a30.677,30.677,0,0,0,1.356-4.635,31.581,31.581,0,0,0,.6-5.683l-1.06-.641a13.4,13.4,0,0,0-1.849-1.01c-.629-.309-1.258-.629-1.912-.9a30.6,30.6,0,0,0-3.994-1.307l-1.207-.309a34.225,34.225,0,0,0-3.6,4.45A32.111,32.111,0,0,0,689.1,119.6c-.086,0-.185-.025-.271-.025s-.185.025-.283.025a30.554,30.554,0,0,0-2.318-4.254,33.894,33.894,0,0,0-3.587-4.45l-1.208.309a30.192,30.192,0,0,0-4.006,1.307c-.641.271-1.27.591-1.912.9a14.126,14.126,0,0,0-1.849,1.01l-1.06.641a33.881,33.881,0,0,0,.605,5.683,30.425,30.425,0,0,0,1.368,4.635c-.136.135-.272.258-.394.394a30.529,30.529,0,0,0-4.636-1.368,32.688,32.688,0,0,0-5.682-.592l-.654,1.06a15.69,15.69,0,0,0-1.01,1.849c-.3.629-.616,1.258-.888,1.9a29.134,29.134,0,0,0-1.305,4.006l-.309,1.208a34.1,34.1,0,0,0,4.45,3.6,32.591,32.591,0,0,0,4.24,2.317c0,.087-.012.173-.012.271s.012.186.012.284a31.24,31.24,0,0,0-4.24,2.317,33.993,33.993,0,0,0-4.45,3.588l.309,1.208a29.183,29.183,0,0,0,1.305,4.006c.273.641.592,1.27.888,1.911a16.524,16.524,0,0,0,1.01,1.837l.654,1.06a32.8,32.8,0,0,0,5.682-.592,30.67,30.67,0,0,0,4.636-1.368c.122.135.258.271.394.394a30.386,30.386,0,0,0-1.368,4.635,34.015,34.015,0,0,0-.605,5.683l1.06.653a15.755,15.755,0,0,0,1.849,1c.642.308,1.271.629,1.912.9a28.715,28.715,0,0,0,4.006,1.306l1.208.308a33.894,33.894,0,0,0,3.587-4.45,30.61,30.61,0,0,0,2.318-4.252,2.277,2.277,0,0,0,.283.025,2.1,2.1,0,0,0,.271-.025,32.173,32.173,0,0,0,2.317,4.252,34.225,34.225,0,0,0,3.6,4.45l1.207-.308a29.078,29.078,0,0,0,3.994-1.306c.654-.271,1.283-.592,1.912-.9a14.855,14.855,0,0,0,1.849-1l1.06-.653a31.7,31.7,0,0,0-.6-5.683,30.638,30.638,0,0,0-1.356-4.635c.135-.123.259-.259.394-.394a30.257,30.257,0,0,0,4.635,1.368,32.681,32.681,0,0,0,5.683.592l.641-1.06a13.394,13.394,0,0,0,1.01-1.837c.308-.641.629-1.27.9-1.911a31.048,31.048,0,0,0,1.307-4.006l.308-1.208a34.8,34.8,0,0,0-4.45-3.588A32.087,32.087,0,0,0,709.259,140.312ZM688.832,149.8a9.775,9.775,0,1,1,9.776-9.776A9.775,9.775,0,0,1,688.832,149.8Z" transform="translate(-594.849 -110.899)" fill="#eba154"></path><path id="Path_38026" data-name="Path 38026" d="M670.912,148.229H604.951v64.96h18.316" transform="translate(-604.951 -104.012)" fill="none" stroke="#fd783d" stroke-miterlimit="10" stroke-width="1" stroke-dasharray="4"></path><g id="Group_27970" data-name="Group 27970" transform="translate(19.886 143.947)"><rect id="Rectangle_3726" data-name="Rectangle 3726" width="36.263" height="6.481" fill="#fff"></rect><rect id="Rectangle_3727" data-name="Rectangle 3727" width="55.751" height="6.481" transform="translate(0 11.991)" fill="#fff"></rect><rect id="Rectangle_3728" data-name="Rectangle 3728" width="18.989" height="6.481" transform="translate(0 23.981)" fill="#fff"></rect><rect id="Rectangle_3729" data-name="Rectangle 3729" width="18.989" height="6.481" transform="translate(26.739 23.981)" fill="#eba154"></rect><rect id="Rectangle_3730" data-name="Rectangle 3730" width="27.268" height="6.481" transform="translate(52.522 23.981)" fill="#eba154"></rect><rect id="Rectangle_3731" data-name="Rectangle 3731" width="16.559" height="6.481" transform="translate(63.232 11.991)" fill="#eba154"></rect><rect id="Rectangle_3732" data-name="Rectangle 3732" width="36.263" height="6.481" transform="translate(43.527)" fill="#eba154"></rect></g><rect id="Rectangle_3733" data-name="Rectangle 3733" width="1.21" height="72.235" transform="translate(111.75 101.976)" fill="#fff"></rect></g><g id="Group_27972" data-name="Group 27972" transform="translate(730.698 224.944)"><rect id="Rectangle_3734" data-name="Rectangle 3734" width="37.29" height="6.664" transform="translate(0 0)" fill="#fff"></rect><rect id="Rectangle_3735" data-name="Rectangle 3735" width="57.329" height="6.665" transform="translate(0 12.33)" fill="#fff"></rect><rect id="Rectangle_3736" data-name="Rectangle 3736" width="19.526" height="6.664" transform="translate(0 24.66)" fill="#fff"></rect><rect id="Rectangle_3737" data-name="Rectangle 3737" width="19.526" height="6.664" transform="translate(27.496 24.66)" fill="#eba154"></rect><rect id="Rectangle_3738" data-name="Rectangle 3738" width="28.04" height="6.664" transform="translate(54.009 24.66)" fill="#eba154"></rect><rect id="Rectangle_3739" data-name="Rectangle 3739" width="17.027" height="6.665" transform="translate(65.021 12.33)" fill="#eba154"></rect><rect id="Rectangle_3740" data-name="Rectangle 3740" width="37.29" height="6.664" transform="translate(44.759 0)" fill="#eba154"></rect></g><g id="Group_27981" data-name="Group 27981" transform="translate(576.594 59.867)"><g id="Group_27980" data-name="Group 27980" transform="translate(0 40.871)"><rect id="Rectangle_3741" data-name="Rectangle 3741" width="107.305" height="210.865" fill="#49496b"></rect><rect id="Rectangle_3742" data-name="Rectangle 3742" width="80.565" height="8.557" transform="translate(12.224 44.847)" fill="#fff"></rect><rect id="Rectangle_3743" data-name="Rectangle 3743" width="53.321" height="8.557" transform="translate(12.224 63.794)" fill="#fff"></rect><rect id="Rectangle_3744" data-name="Rectangle 3744" width="19.323" height="8.557" transform="translate(73.465 63.794)" fill="#eba154"></rect><rect id="Rectangle_3745" data-name="Rectangle 3745" width="49.925" height="8.557" transform="translate(42.864 82.742)" fill="#eba154"></rect><rect id="Rectangle_3746" data-name="Rectangle 3746" width="23.381" height="8.557" transform="translate(12.224 82.742)" fill="#fff"></rect><rect id="Rectangle_3747" data-name="Rectangle 3747" width="42.585" height="8.557" transform="translate(12.224 101.689)" fill="#fff"></rect><rect id="Rectangle_3748" data-name="Rectangle 3748" width="31.42" height="8.557" transform="translate(61.368 101.689)" fill="#eba154"></rect><rect id="Rectangle_3749" data-name="Rectangle 3749" width="57.183" height="8.557" transform="translate(35.605 120.636)" fill="#eba154"></rect><rect id="Rectangle_3750" data-name="Rectangle 3750" width="17.286" height="8.557" transform="translate(12.224 120.636)" fill="#fff"></rect><rect id="Rectangle_3751" data-name="Rectangle 3751" width="34.571" height="8.557" transform="translate(12.224 139.583)" fill="#fff"></rect><rect id="Rectangle_3752" data-name="Rectangle 3752" width="40.282" height="8.557" transform="translate(52.506 139.583)" fill="#eba154"></rect><g id="Group_27976" data-name="Group 27976" transform="translate(56.521 180.235)"><g id="Group_27973" data-name="Group 27973" transform="translate(25.07 6.491)"><path id="Path_38027" data-name="Path 38027" d="M569.815,255.366v2.408L561,261.128v-2.316l6.169-2.241L561,254.311v-2.3Z" transform="translate(-560.996 -252.013)" fill="#eba154"></path></g><g id="Group_27974" data-name="Group 27974" transform="translate(0 6.491)"><path id="Path_38028" data-name="Path 38028" d="M548.65,252.013v2.3l-6.169,2.26,6.169,2.241v2.316l-8.819-3.353v-2.408Z" transform="translate(-539.831 -252.013)" fill="#eba154"></path></g><g id="Group_27975" data-name="Group 27975" transform="translate(12.694 0)"><path id="Path_38029" data-name="Path 38029" d="M557.1,246.533h2.759l-6.549,18.694h-2.757Z" transform="translate(-550.548 -246.533)" fill="#eba154"></path></g></g><g id="Group_27979" data-name="Group 27979" transform="translate(17.113 21.124)"><g id="Group_27977" data-name="Group 27977" transform="translate(21.251)"><path id="Path_38030" data-name="Path 38030" d="M536.058,116.6v3.157L524.5,124.149v-3.035l8.084-2.938-8.084-2.961v-3.011Z" transform="translate(-524.502 -112.205)" fill="#eba154"></path></g><g id="Group_27978" data-name="Group 27978"><path id="Path_38031" data-name="Path 38031" d="M518.118,112.205v3.011l-8.085,2.961,8.085,2.938v3.035l-11.557-4.393V116.6Z" transform="translate(-506.561 -112.205)" fill="#eba154"></path></g></g></g><text id="HTML" transform="translate(0.696 22)" fill="#fff" font-size="20" font-family="SegoeUI, Segoe UI"><tspan x="0" y="0">HTML</tspan></text></g><g id="Group_27993" data-name="Group 27993" transform="translate(34.221 74.354)"><g id="Group_27983" data-name="Group 27983" transform="translate(0 234.678)"><g id="Group_27982" data-name="Group 27982"><path id="Path_38032" data-name="Path 38032" d="M80.057,277.95a26.861,26.861,0,0,0-7.589-5.233,1.481,1.481,0,0,0-.153-.071,27.045,27.045,0,0,0-12.654-2.383,26.668,26.668,0,0,0-8.926,2.057c-.181.077-.365.155-.544.235a26.949,26.949,0,1,0,29.866,5.4ZM68.781,314.237a18.684,18.684,0,0,1-23.906-26.218c.019-.034.039-.073.063-.115a18.57,18.57,0,0,1,8.615-7.813,17.861,17.861,0,0,1,2.15-.8c.075-.026.152-.05.227-.072a18.6,18.6,0,0,1,11.145.222.172.172,0,0,1,.043.011,18.758,18.758,0,0,1,7.957,5.224,18.693,18.693,0,0,1-6.294,29.563Z" transform="translate(-34.221 -270.222)" fill="#64648e"></path></g><path id="Path_38033" data-name="Path 38033" d="M67.351,272.339A26.921,26.921,0,0,1,81.922,289.25l-7.645,3.386A18.667,18.667,0,0,0,62,279.073l-.043-.011h0l5.24-6.794" transform="translate(-29.104 -269.844)" fill="#eba154"></path><line id="Line_391" data-name="Line 391" x1="5.35" y2="6.734" transform="translate(32.897 2.495)" fill="#eba154"></line><path id="Path_38034" data-name="Path 38034" d="M64.546,279.45l-.043-.011a18.6,18.6,0,0,0-11.145-.222c-.076.023-.153.046-.227.072l-4.968-6.971a26.668,26.668,0,0,1,8.926-2.057,27.045,27.045,0,0,1,12.654,2.383" transform="translate(-31.649 -270.222)" fill="#b83d5d"></path></g><path id="Path_38035" data-name="Path 38035" d="M58.784,315.827v45.54h77.862V315.109" transform="translate(-29.69 -27.262)" fill="none" stroke="#fd783d" stroke-miterlimit="10" stroke-width="1" stroke-dasharray="4"></path><g id="Group_27992" data-name="Group 27992" transform="translate(78.54)"><rect id="Rectangle_3753" data-name="Rectangle 3753" width="228.428" height="272.338" transform="translate(0 13.266)" fill="#49496b"></rect><rect id="Rectangle_3754" data-name="Rectangle 3754" width="228.428" height="34.565" fill="#64648e"></rect><g id="Group_27986" data-name="Group 27986" transform="translate(170.426 253.129)"><g id="Group_27984" data-name="Group 27984" transform="translate(23.355 10.618)"><path id="Path_38036" data-name="Path 38036" d="M272.339,297.887v2.243l-8.214,3.124V301.1l5.746-2.088-5.746-2.1v-2.14Z" transform="translate(-264.125 -294.763)" fill="#eba154"></path></g><g id="Group_27985" data-name="Group 27985" transform="translate(0 10.618)"><path id="Path_38037" data-name="Path 38037" d="M252.622,294.763v2.14l-5.746,2.1,5.746,2.088v2.157l-8.215-3.124v-2.243Z" transform="translate(-244.408 -294.763)" fill="#eba154"></path></g><text id="_2" data-name="/" transform="translate(12.435 17)" fill="#eba154" font-size="16" font-family="Montserrat-Bold, Montserrat" font-weight="700"><tspan x="0" y="0">/</tspan></text></g><g id="Group_27989" data-name="Group 27989" transform="translate(25.046 52.704)"><g id="Group_27987" data-name="Group 27987" transform="translate(18.838)"><path id="Path_38038" data-name="Path 38038" d="M147.821,120.488v2.8l-10.244,3.895v-2.69l7.166-2.6-7.166-2.625v-2.669Z" transform="translate(-137.577 -116.592)" fill="#eba154"></path></g><g id="Group_27988" data-name="Group 27988"><path id="Path_38039" data-name="Path 38039" d="M131.918,116.592v2.669l-7.166,2.625,7.166,2.6v2.69l-10.245-3.895v-2.8Z" transform="translate(-121.673 -116.592)" fill="#eba154"></path></g></g><text id="WEB_DEVELOPING" data-name="WEB DEVELOPING" transform="translate(13.86 22.841)" fill="#fff" font-size="15" font-family="Montserrat-Bold, Montserrat" font-weight="700"><tspan x="0" y="0">WEB DEVELOPING</tspan></text><g id="Group_27991" data-name="Group 27991" transform="translate(12.227 79.902)"><g id="Group_27990" data-name="Group 27990" transform="translate(27.264)"><rect id="Rectangle_3755" data-name="Rectangle 3755" width="67.146" height="12.297" fill="#54b3cd"></rect><rect id="Rectangle_3756" data-name="Rectangle 3756" width="33.573" height="12.297" transform="translate(76.606)" fill="#eba154"></rect><rect id="Rectangle_3757" data-name="Rectangle 3757" width="46.24" height="12.297" transform="translate(117.912)" fill="#fff"></rect><rect id="Rectangle_3758" data-name="Rectangle 3758" width="31.338" height="12.297" transform="translate(0 21.953)" fill="#54b3cd"></rect><rect id="Rectangle_3759" data-name="Rectangle 3759" width="53.527" height="12.297" transform="translate(39.865 21.953)" fill="#eba154"></rect><rect id="Rectangle_3760" data-name="Rectangle 3760" width="62.037" height="12.297" transform="translate(102.115 21.953)" fill="#fff"></rect><rect id="Rectangle_3761" data-name="Rectangle 3761" width="41.251" height="12.297" transform="translate(0 43.907)" fill="#54b3cd"></rect><rect id="Rectangle_3762" data-name="Rectangle 3762" width="77.599" height="12.297" transform="translate(47.967 43.907)" fill="#eba154"></rect><rect id="Rectangle_3763" data-name="Rectangle 3763" width="30.272" height="12.297" transform="translate(133.88 43.907)" fill="#fff"></rect><rect id="Rectangle_3764" data-name="Rectangle 3764" width="52.017" height="12.297" transform="translate(0 65.86)" fill="#54b3cd"></rect><rect id="Rectangle_3765" data-name="Rectangle 3765" width="50.488" height="12.297" transform="translate(59.692 65.86)" fill="#eba154"></rect><rect id="Rectangle_3766" data-name="Rectangle 3766" width="46.24" height="12.297" transform="translate(117.912 65.86)" fill="#fff"></rect><rect id="Rectangle_3767" data-name="Rectangle 3767" width="22.811" height="12.297" transform="translate(0 87.814)" fill="#54b3cd"></rect><rect id="Rectangle_3768" data-name="Rectangle 3768" width="45.195" height="12.297" transform="translate(30.485 87.814)" fill="#eba154"></rect><rect id="Rectangle_3769" data-name="Rectangle 3769" width="81.437" height="12.297" transform="translate(82.716 87.814)" fill="#fff"></rect><rect id="Rectangle_3770" data-name="Rectangle 3770" width="65.234" height="12.297" transform="translate(0 109.767)" fill="#54b3cd"></rect><rect id="Rectangle_3771" data-name="Rectangle 3771" width="20.057" height="12.297" transform="translate(73.335 109.767)" fill="#eba154"></rect><rect id="Rectangle_3772" data-name="Rectangle 3772" width="62.037" height="12.297" transform="translate(102.115 109.767)" fill="#fff"></rect><rect id="Rectangle_3773" data-name="Rectangle 3773" width="84.936" height="12.297" transform="translate(0 131.721)" fill="#54b3cd"></rect><rect id="Rectangle_3774" data-name="Rectangle 3774" width="34.749" height="12.297" transform="translate(92.096 131.721)" fill="#eba154"></rect><rect id="Rectangle_3775" data-name="Rectangle 3775" width="30.272" height="12.297" transform="translate(133.88 131.721)" fill="#fff"></rect><rect id="Rectangle_3776" data-name="Rectangle 3776" width="26.009" height="12.297" transform="translate(0 153.674)" fill="#54b3cd"></rect><rect id="Rectangle_3777" data-name="Rectangle 3777" width="31.662" height="12.297" transform="translate(33.573 153.674)" fill="#eba154"></rect><rect id="Rectangle_3778" data-name="Rectangle 3778" width="90.817" height="12.297" transform="translate(73.335 153.674)" fill="#fff"></rect></g><rect id="Rectangle_3779" data-name="Rectangle 3779" width="2.501" height="165.971" transform="translate(200.395)" fill="#fff"></rect><circle id="Ellipse_612" data-name="Ellipse 612" cx="6.148" cy="6.148" r="6.148" fill="#fff"></circle><circle id="Ellipse_613" data-name="Ellipse 613" cx="6.148" cy="6.148" r="6.148" transform="translate(0 21.953)" fill="#fff"></circle><circle id="Ellipse_614" data-name="Ellipse 614" cx="6.148" cy="6.148" r="6.148" transform="translate(0 43.907)" fill="#fff"></circle><circle id="Ellipse_615" data-name="Ellipse 615" cx="6.148" cy="6.148" r="6.148" transform="translate(0 65.86)" fill="#fff"></circle><circle id="Ellipse_616" data-name="Ellipse 616" cx="6.148" cy="6.148" r="6.148" transform="translate(0 87.814)" fill="#fff"></circle><circle id="Ellipse_617" data-name="Ellipse 617" cx="6.148" cy="6.148" r="6.148" transform="translate(0 109.767)" fill="#fff"></circle><circle id="Ellipse_618" data-name="Ellipse 618" cx="6.148" cy="6.148" r="6.148" transform="translate(0 131.721)" fill="#fff"></circle><circle id="Ellipse_619" data-name="Ellipse 619" cx="6.148" cy="6.148" r="6.148" transform="translate(0 153.674)" fill="#fff"></circle></g><path id="Path_38040" data-name="Path 38040" d="M286.74,89.274A6.271,6.271,0,1,1,280.468,83,6.271,6.271,0,0,1,286.74,89.274Z" transform="translate(-68.486 -70.085)" fill="#b83d5d"></path></g><path id="Path_38041" data-name="Path 38041" d="M273.667,89.175a6.319,6.319,0,1,1-6.318-6.319A6.318,6.318,0,0,1,273.667,89.175Z" transform="translate(7.625 -70.112)" fill="#fff"></path></g><g id="Group_27996" data-name="Group 27996" transform="translate(371.591 68.542)"><rect id="Rectangle_3780" data-name="Rectangle 3780" width="22.129" height="6.2" transform="translate(0 51.101)" fill="#47547c"></rect><rect id="Rectangle_3781" data-name="Rectangle 3781" width="67.698" height="6.2" transform="translate(0 40.062)" fill="#64648e"></rect><path id="Path_38042" data-name="Path 38042" d="M352.062,116.563V141.3H433.5V122.142" transform="translate(-312.95 -58.081)" fill="none" stroke="#fd783d" stroke-miterlimit="10" stroke-width="1" stroke-dasharray="4"></path><text id="CSS" transform="translate(0 22)" fill="#fff" font-size="20" font-family="SegoeUI, Segoe UI"><tspan x="0" y="0">CSS</tspan></text><g id="Group_27995" data-name="Group 27995" transform="translate(101.859 25.349)"><g id="Group_27994" data-name="Group 27994"><path id="Path_38043" data-name="Path 38043" d="M441.674,102.053a18.441,18.441,0,0,0-.872-2.383,18.563,18.563,0,0,0-9.236-9.342.3.3,0,0,0-.107-.05,18.623,18.623,0,0,0-14.971-.23c-.123.058-.255.107-.378.165a18.68,18.68,0,1,0,25.563,11.84Zm-12.662,17.075a12.982,12.982,0,0,1-17.124-6.566,13.506,13.506,0,0,1-.6-1.626,12.936,12.936,0,0,1,1.142-9.991.387.387,0,0,1,.041-.083,12.863,12.863,0,0,1,5.973-5.423,12.4,12.4,0,0,1,1.5-.551.486.486,0,0,1,.155-.05,12.911,12.911,0,0,1,7.732.148c.008,0,.017.008.025.008a13.07,13.07,0,0,1,5.521,3.623A12.7,12.7,0,0,1,435.569,102a13.258,13.258,0,0,1,.8,2.4,13.013,13.013,0,0,1-7.362,14.724Z" transform="translate(-405.036 -88.591)" fill="#64648e"></path></g><path id="Path_38044" data-name="Path 38044" d="M442.052,110.935H436.16a12.908,12.908,0,0,0,.213-6.533,13.258,13.258,0,0,0-.8-2.4,12.7,12.7,0,0,0-2.195-3.385,13.07,13.07,0,0,0-5.521-3.623c-.008,0-.017-.008-.025-.008a12.911,12.911,0,0,0-7.732-.148.486.486,0,0,0-.155.05,12.4,12.4,0,0,0-1.5.551,12.863,12.863,0,0,0-5.973,5.423.387.387,0,0,0-.041.083,12.936,12.936,0,0,0-1.142,9.991H405.4a18.724,18.724,0,0,1,10.715-20.723c.123-.058.255-.107.378-.165a18.623,18.623,0,0,1,14.971.23.3.3,0,0,1,.107.05A18.563,18.563,0,0,1,440.8,99.67a18.684,18.684,0,0,1,1.25,11.266Z" transform="translate(-405.036 -88.591)" fill="#b83d5d"></path></g><rect id="Rectangle_3782" data-name="Rectangle 3782" width="41.135" height="6.2" transform="translate(26.563 51.101)" fill="#64648e"></rect></g><g id="Group_27998" data-name="Group 27998" transform="translate(51.151 67.571)"><text id="_3" data-name="{ }" transform="translate(0.174 32)" fill="#323247" font-size="30" font-family="SegoeUI, Segoe UI"><tspan x="0" y="0">{ }</tspan></text><g id="Group_27997" data-name="Group 27997" transform="translate(0 68.197)"><rect id="Rectangle_3783" data-name="Rectangle 3783" width="24.329" height="11.61" fill="#fff"></rect><rect id="Rectangle_3784" data-name="Rectangle 3784" width="24.329" height="11.61" transform="translate(0 20.284)" fill="#fff"></rect><rect id="Rectangle_3785" data-name="Rectangle 3785" width="24.329" height="11.61" transform="translate(0 40.569)" fill="#eba154"></rect><rect id="Rectangle_3786" data-name="Rectangle 3786" width="24.329" height="11.61" transform="translate(0 60.853)" fill="#eba154"></rect><rect id="Rectangle_3787" data-name="Rectangle 3787" width="24.329" height="11.61" transform="translate(0 81.137)" fill="#eba154"></rect><rect id="Rectangle_3788" data-name="Rectangle 3788" width="24.329" height="11.61" transform="translate(0 101.421)" fill="#eba154"></rect><rect id="Rectangle_3789" data-name="Rectangle 3789" width="24.329" height="11.61" transform="translate(0 121.706)" fill="#eba154"></rect></g></g><g id="Group_28003" data-name="Group 28003" transform="translate(617.633 333.028)"><path id="Path_38045" data-name="Path 38045" d="M656.091,320.606c0-.084.011-.158.011-.242s-.011-.159-.011-.232a28.841,28.841,0,0,0,3.638-1.982,29.936,29.936,0,0,0,3.8-3.079l-.263-1.033a26.428,26.428,0,0,0-1.118-3.426c-.232-.548-.506-1.086-.769-1.624a10.926,10.926,0,0,0-.865-1.581l-.548-.906a27.955,27.955,0,0,0-4.86.506,25.772,25.772,0,0,0-3.963,1.17l-.336-.338a26.333,26.333,0,0,0,1.16-3.963,27.061,27.061,0,0,0,.516-4.86l-.907-.548a11.5,11.5,0,0,0-1.581-.864c-.538-.264-1.074-.538-1.633-.77a26.315,26.315,0,0,0-3.415-1.117l-1.034-.264a29.311,29.311,0,0,0-3.078,3.806,27.5,27.5,0,0,0-1.982,3.636c-.073,0-.157-.021-.231-.021s-.159.021-.243.021a26.172,26.172,0,0,0-1.982-3.636,29.1,29.1,0,0,0-3.068-3.806l-1.033.264a25.9,25.9,0,0,0-3.426,1.117c-.548.232-1.086.506-1.635.77a12.23,12.23,0,0,0-1.581.864l-.906.548a29.039,29.039,0,0,0,.516,4.86,26.112,26.112,0,0,0,1.17,3.963c-.116.116-.232.221-.338.338a26.049,26.049,0,0,0-3.963-1.17,28.04,28.04,0,0,0-4.86-.506l-.558.906a13.267,13.267,0,0,0-.865,1.581c-.252.538-.527,1.076-.759,1.624a24.877,24.877,0,0,0-1.117,3.426l-.263,1.033a29.2,29.2,0,0,0,3.8,3.079,28.082,28.082,0,0,0,3.626,1.982c0,.073-.01.147-.01.232s.01.158.01.242a26.851,26.851,0,0,0-3.626,1.982,29.1,29.1,0,0,0-3.8,3.068l.263,1.033a24.941,24.941,0,0,0,1.117,3.427c.232.547.507,1.085.759,1.633a14,14,0,0,0,.865,1.571l.558.906a28.046,28.046,0,0,0,4.86-.506,26.059,26.059,0,0,0,3.963-1.17c.105.116.222.232.338.338a26.113,26.113,0,0,0-1.17,3.963,29.16,29.16,0,0,0-.516,4.86l.906.559a13.59,13.59,0,0,0,1.581.854c.548.263,1.086.537,1.635.769a24.409,24.409,0,0,0,3.426,1.117l1.033.264a29.1,29.1,0,0,0,3.068-3.806,26.106,26.106,0,0,0,1.982-3.636,1.868,1.868,0,0,0,.243.021,1.691,1.691,0,0,0,.231-.021,27.43,27.43,0,0,0,1.982,3.636,29.311,29.311,0,0,0,3.078,3.806l1.034-.264a24.774,24.774,0,0,0,3.415-1.117c.559-.232,1.1-.506,1.633-.769a12.692,12.692,0,0,0,1.581-.854l.907-.559a27.166,27.166,0,0,0-.516-4.86,26.334,26.334,0,0,0-1.16-3.963c.115-.105.221-.222.336-.338a25.782,25.782,0,0,0,3.963,1.17,27.961,27.961,0,0,0,4.86.506l.548-.906a11.4,11.4,0,0,0,.865-1.571c.263-.548.536-1.086.769-1.633a26.5,26.5,0,0,0,1.118-3.427l.263-1.033a29.829,29.829,0,0,0-3.8-3.068A27.549,27.549,0,0,0,656.091,320.606Zm-17.467,8.117a8.36,8.36,0,1,1,8.359-8.359A8.359,8.359,0,0,1,638.625,328.723Z" transform="translate(-510.717 -289.562)" fill="#323247"></path><g id="Group_28001" data-name="Group 28001"><g id="Group_27999" data-name="Group 27999" transform="translate(24.85)"><rect id="Rectangle_3790" data-name="Rectangle 3790" width="11.037" height="49.711" transform="translate(32.67)" fill="#b83d5d"></rect><rect id="Rectangle_3791" data-name="Rectangle 3791" width="11.831" height="27.808" transform="translate(16.389 21.903)" fill="#64648e"></rect><rect id="Rectangle_3792" data-name="Rectangle 3792" width="11.831" height="18.909" transform="translate(0 30.801)" fill="#fd783d"></rect></g><path id="Path_38046" data-name="Path 38046" d="M549.518,325.762H526.76v44.614h24.85" transform="translate(-526.76 -283.97)" fill="none" stroke="#fd783d" stroke-miterlimit="10" stroke-width="1" stroke-dasharray="4"></path><g id="Group_28000" data-name="Group 28000" transform="translate(28.597 84.196)"><rect id="Rectangle_3793" data-name="Rectangle 3793" width="31.306" height="5.595" fill="#fff"></rect><rect id="Rectangle_3794" data-name="Rectangle 3794" width="21.652" height="5.595" transform="translate(0 10.351)" fill="#fff"></rect><rect id="Rectangle_3795" data-name="Rectangle 3795" width="27.407" height="5.595" transform="translate(0 20.703)" fill="#fff"></rect><rect id="Rectangle_3796" data-name="Rectangle 3796" width="6.398" height="5.595" transform="translate(33.078 20.703)" fill="#eba154"></rect><rect id="Rectangle_3797" data-name="Rectangle 3797" width="23.54" height="5.595" transform="translate(45.342 20.703)" fill="#eba154"></rect><rect id="Rectangle_3798" data-name="Rectangle 3798" width="40.29" height="5.595" transform="translate(28.592 10.351)" fill="#eba154"></rect><rect id="Rectangle_3799" data-name="Rectangle 3799" width="31.306" height="5.595" transform="translate(37.576)" fill="#eba154"></rect></g></g><g id="Group_28002" data-name="Group 28002" transform="translate(184.21 27.769)"><rect id="Rectangle_3800" data-name="Rectangle 3800" width="20.628" height="9.844" fill="#b83d5d"></rect><rect id="Rectangle_3801" data-name="Rectangle 3801" width="20.628" height="9.844" transform="translate(0 17.198)" fill="#b83d5d"></rect><rect id="Rectangle_3802" data-name="Rectangle 3802" width="20.628" height="9.844" transform="translate(0 34.396)" fill="#b83d5d"></rect><rect id="Rectangle_3803" data-name="Rectangle 3803" width="20.628" height="9.844" transform="translate(0 51.594)" fill="#b83d5d"></rect><rect id="Rectangle_3804" data-name="Rectangle 3804" width="20.628" height="9.844" transform="translate(0 68.792)" fill="#fff"></rect><rect id="Rectangle_3805" data-name="Rectangle 3805" width="20.628" height="9.844" transform="translate(0 85.99)" fill="#fff"></rect><rect id="Rectangle_3806" data-name="Rectangle 3806" width="20.628" height="9.844" transform="translate(0 103.188)" fill="#fff"></rect></g></g><g id="Group_28007" data-name="Group 28007" transform="translate(686.348 401.518)"><g id="Group_28004" data-name="Group 28004" transform="translate(0.004 41.457)"><path id="Path_38047" data-name="Path 38047" d="M630.957,442.337a31.641,31.641,0,0,1-19.556-4.6c-21.759-13.464-26.3-51.443-26.612-54.3.191.875,2.336,5.52,24.953,20.735q2.823,1.9,5.18,3.86s.027.023.081.063C634.712,424.423,630.957,442.337,630.957,442.337Z" transform="translate(-584.774 -383.276)" fill="#0c8068"></path><path id="Path_38048" data-name="Path 38048" d="M584.776,383.3s20.318,49.86,42.859,55.11" transform="translate(-584.776 -383.302)" fill="none" stroke="#0a6d53" stroke-miterlimit="10" stroke-width="1"></path><path id="Path_38049" data-name="Path 38049" d="M626.812,438.507a31.641,31.641,0,0,1-19.556-4.6c4.332-10.25,3.52-29.7,3.52-29.7s.027.023.08.063C630.567,420.592,626.812,438.507,626.812,438.507Z" transform="translate(-580.628 -379.445)" fill="#0a6d53" opacity="0.5"></path></g><g id="Group_28005" data-name="Group 28005" transform="translate(56.841 44.4)"><path id="Path_38050" data-name="Path 38050" d="M679.862,385.786c-.085.531-.39,2.373-1,5.084v.009c-3.211,14.376-14.8,53.062-45.973,49.184a25.03,25.03,0,0,1,.526-8.286c1.542-7.3,6.5-18.173,21.578-27.289C677.372,390.956,679.635,386.612,679.862,385.786Z" transform="translate(-632.76 -385.786)" fill="#0c8068"></path><path id="Path_38051" data-name="Path 38051" d="M678.5,388.379s-16,41.454-43.753,49.906" transform="translate(-632.394 -385.308)" fill="none" stroke="#0a6d53" stroke-miterlimit="10" stroke-width="1"></path><path id="Path_38052" data-name="Path 38052" d="M678.864,390.078v.009c-3.211,14.376-14.8,53.062-45.973,49.184a25.029,25.029,0,0,1,.526-8.286h.032C659.386,432.373,678.864,390.078,678.864,390.078Z" transform="translate(-632.76 -384.994)" fill="#0a6d53" opacity="0.5"></path></g><g id="Group_28006" data-name="Group 28006" transform="translate(35.541)"><path id="Path_38053" data-name="Path 38053" d="M634.536,448.362c-.771,1.337-12.154-3.392-17.283-17.079h0c-3.08-8.223-3.9-19.678,1.188-34.984,13.369-40.2,7.859-47.779,7.7-47.991a48.853,48.853,0,0,1,19.38,19.932s.008.018.031.054C653.782,383.776,657,409.291,634.536,448.362Z" transform="translate(-614.777 -348.301)" fill="#159a7a"></path><path id="Path_38054" data-name="Path 38054" d="M624.358,348.3s17.435,22,10.8,63.836-2.386,36.224-2.386,36.224" transform="translate(-613.009 -348.302)" fill="none" stroke="#0c8068" stroke-miterlimit="10" stroke-width="1"></path><path id="Path_38055" data-name="Path 38055" d="M634.15,445.257c-.771,1.337-12.154-3.392-17.283-17.079,28.7,8.154,28.259-63.044,28.259-63.044s.008.018.031.054C653.4,380.671,656.613,406.186,634.15,445.257Z" transform="translate(-614.392 -345.197)" fill="#0c8068" opacity="0.5"></path></g><path id="Path_38056" data-name="Path 38056" d="M584.774,383.3l.013.141A.364.364,0,0,1,584.774,383.3Z" transform="translate(-584.772 -341.845)" fill="#0c8068"></path><path id="Path_38057" data-name="Path 38057" d="M657.741,432.271V464.4a17.019,17.019,0,0,1-17.02,17.021H625.609a17,17,0,0,1-14.535-8.164h0a16.969,16.969,0,0,1-2.48-8.858V432.271Z" transform="translate(-580.378 -332.81)" fill="#eba154"></path><rect id="Rectangle_3807" data-name="Rectangle 3807" width="55.232" height="4.168" rx="1.059" transform="translate(25.171 95.293)" fill="#eba154"></rect><path id="Path_38058" data-name="Path 38058" d="M657.354,432.271V464.4a17.019,17.019,0,0,1-17.02,17.021H625.222a17,17,0,0,1-14.535-8.164c36,11.306,43.819-15.165,42.426-25.664s-14.359-15.325-14.359-15.325Z" transform="translate(-579.991 -332.81)" fill="#dc831e"></path></g></g></g></svg>